<svg fill="none" height="48" viewBox="0 0 150 48" width="150" xmlns="http://www.w3.org/2000/svg"><path d="m0 0h150v48h-150z" fill="none"/><path clip-rule="evenodd" d="m37.2678 0h-2.8245c-.6753 0-1.1665.499268-1.1665 1.18604v32.14546c0 .4996.3684.9988.8597 1.1236.3054.1245.611.1867.9165.2488l.0044.0009c.2631.0486.5356.1067.8173.167l.0142.003c.4372.0935.897.1916 1.3789.267.7368.1248 1.5964.2496 2.4561.3121.8596.0625 1.7192.1247 2.5788.1247 1.9649 0 3.7456-.2495 5.3421-.8738 1.5964-.6242 2.9472-1.4358 4.0522-2.5593 1.1052-1.1235 1.9648-2.4343 2.5789-3.9946.614-1.5606.9211-3.3084.9211-5.1809 0-1.5603-.2456-2.9961-.7368-4.3069s-1.1668-2.4343-2.0877-3.3706c-.9211-.9363-2.0261-1.6853-3.3156-2.1846-1.2893-.4993-2.763-.749-4.4209-.749-.5003 0-1.0008.0513-1.5469.1072l-.1724.0175c-.2173.0494-.4438.0982-.6723.1473l-.0179.0039-.0302.0066-.0823.0175-.0667.0142-.0566.0122c-.2693.0576-.5378.1152-.7932.1729-.5525.125-1.1052.3122-1.5964.4995-.1263.0642-.2486.1242-.3667.1821-.3414.1677-.649.3188-.9227.5044 0-.1123.0125-.2371.0262-.3745l.0002-.0025c.0166-.1679.0349-.3542.0349-.5593.0615-.3745.0615-.749.0615-1.186v-1.1858-.9363-8.61376c0-.686772-.5527-1.18604-1.1667-1.18604zm1.8667 31.4458c-.2422-.0422-.4773-.0833-.7-.1116v-13.5449c.1416-.0723.2833-.1533.4285-.2366l.002-.0012.0022-.0012.0022-.0012c.2304-.1324.4697-.2698.7317-.3841.1066-.0407.2104-.0813.3127-.1213.3682-.1443.7151-.2803 1.0996-.3779l.0056-.0015c.4895-.1243.9788-.2485 1.468-.3105.4912-.0625.9825-.125 1.3509-.125.8596 0 1.7192.125 2.456.437.7981.312 1.4121.749 1.9649 1.3108.5525.6242.9824 1.3108 1.2893 2.1845.3071.8741.4912 1.8726.4912 2.9961 0 1.1236-.1228 2.1848-.4297 3.1834-.3071 1.0613-.7983 1.935-1.4124 2.7466-.6753.749-1.4736 1.373-2.5173 1.8725-1.0439.4993-2.3332.749-3.8069.749-.6755 0-1.2895-.0625-1.842-.125-.2998-.0337-.5994-.0859-.8892-.1367zm-7.6384-7.5393c0 1.7476-.3069 3.3706-.7981 4.8061-.5528 1.4356-1.3509 2.6841-2.3333 3.6827-1.0439.9987-2.2719 1.8103-3.6841 2.372-1.4736.5618-3.07.8113-4.9121.8113-1.7192 0-3.3156-.2495-4.7277-.8113-1.4124-.5617-2.6404-1.3108-3.6229-2.3095-.9824-.9988-1.78047-2.1846-2.3332-3.6204-.55249-1.4355-.7981-2.9961-.7981-4.7436 0-1.8726.24561-3.5579.7981-4.9937.55273-1.498 1.3508-2.6838 2.3948-3.7451 1.0437-.9986 2.3332-1.8101 3.8069-2.3093 1.4736-.5618 3.1928-.8116 5.0349-.8116 1.7805 0 3.3769.2498 4.7893.8116 1.4121.4992 2.5786 1.3107 3.4997 2.3093.9825.9988 1.6577 2.1848 2.149 3.6203.4912 1.4981.7368 3.1209.7368 4.9312zm-5.1577 0c0-2.4343-.5525-4.3069-1.5962-5.5554-1.044-1.2483-2.6404-1.8726-4.6665-1.8726-2.0877 0-3.6841.6243-4.8509 1.9351-1.1665 1.3108-1.7192 3.1833-1.7192 5.6176 0 1.1861.1228 2.2471.4299 3.1834.3069.9363.7368 1.7478 1.2893 2.3718.5528.6243 1.2896 1.1236 2.0877 1.4981.7983.3745 1.7192.4995 2.7632.4995 2.0261 0 3.6225-.6243 4.6665-1.9351 1.1049-1.3733 1.5962-3.2458 1.5962-5.7424zm-23.5164-11.0483h2.82422c.61401 0 1.16675.4992 1.16675 1.186v20.7229c0 1.6853-.06153 3.1833-.24561 4.5566-.18432 1.3731-.42993 2.5591-.67554 3.6826-.30688 1.1236-.61401 2.0599-.98242 2.8714-.24536.5618-.55249 1.1235-.79809 1.5605-.18408.3745-.61402.5618-.98242.5618h-1.96485c-.798094 0-1.350829-.749-1.1052232-1.5605.0593262-.1807.1184082-.4197.1779782-.6607l.00293-.0117.003418-.0142c.245605-.874.491211-1.8728.675293-2.9963.184324-1.1235.368404-2.3718.552734-3.6826.1228-1.3733.18408-2.8089.18408-4.3694v-20.6604c.06153-.6868.55274-1.186 1.16675-1.186zm66.0059 21.0351c0 .4993-.3072.9363-.7369 1.1235-.4299.1873-.9211.3121-1.4123.3746-.8596.1872-1.7193.2495-2.7017.2495-2.1489 0-3.6841-.6241-4.605-1.8101-.9211-1.186-1.4123-2.9961-1.4123-5.4929v-11.9219h-2.9473c-.6753 0-1.1665-.5618-1.1665-1.186v-1.1858c0-.6868.5525-1.186 1.1665-1.186h3.1316c.3069-.9363.614-1.9351.9209-2.99614.2456-.74902.43-1.43555.614-2.12231.1228-.49927.614-.87378 1.1053-.87378h1.1052c.6755 0 1.1667.56176 1.1667 1.18603v4.7437h4.9734c.6756 0 1.1668.5617 1.1668 1.186v1.186c0 .6865-.5528 1.1858-1.1668 1.1858h-4.9121v12.7334c0 .749.1843 1.4358.614 1.8726.3684.4995.9824.749 1.7193.749.6755 0 1.2895-.0623 1.842-.1248.1228 0 .1843 0 .3071-.0625.6753-.0622 1.2893.4371 1.2893 1.1861zm21.8588-5.1807c.4913-1.4355.7981-3.0585.7981-4.8061 0-1.8103-.2456-3.4331-.7368-4.9312-.4912-1.4355-1.1665-2.6215-2.1489-3.6203-.9211-.9986-2.0876-1.8101-3.4998-2.3093-1.4123-.5618-3.0087-.8116-4.7893-.8116-1.842 0-3.5612.2498-5.0349.8116-1.4736.4992-2.7632 1.3107-3.8069 2.3093-1.0439 1.0613-1.842 2.2471-2.3947 3.7451-.5525 1.4358-.7981 3.1211-.7981 4.9937 0 1.7475.2456 3.3081.7981 4.7436.5527 1.4358 1.3508 2.6216 2.3332 3.6204.9824.9987 2.2105 1.7478 3.6228 2.3095 1.4121.5618 3.0086.8113 4.7278.8113 1.842 0 3.4385-.2495 4.9121-.8113 1.4121-.5617 2.6401-1.3733 3.6841-2.372.9824-.9986 1.7805-2.2471 2.3332-3.6827zm-5.9558-10.3615c1.0437 1.2485 1.5962 3.1211 1.5962 5.5554 0 2.4966-.5525 4.3691-1.5962 5.7424-1.0439 1.3108-2.6403 1.9351-4.6665 1.9351-1.0439 0-1.9648-.125-2.7632-.4995-.798-.3745-1.5349-.8738-2.0876-1.4981-.5525-.624-.9824-1.4355-1.2893-2.3718-.3071-.9363-.4299-1.9973-.4299-3.1834 0-2.4343.5527-4.3068 1.7192-5.6176 1.1667-1.3108 2.7632-1.9351 4.8508-1.9351 2.0262 0 3.6226.6243 4.6665 1.8726zm26.7091 16.7905h-2.824c-.676 0-1.167-.5618-1.167-1.186v-12.6084c0-1.5606-.307-2.8089-.921-3.6204s-1.474-1.2483-2.702-1.2483c-.552 0-1.105.0623-1.658.2495-.552.1873-1.043.3745-1.534.6243-.492.2498-.9216.4993-1.29.8115-.1453.1231-.2906.2366-.4285.344l-.0034.0027c-.2102.1641-.4026.3142-.5506.4646v14.9805c0 .6867-.5524 1.186-1.1665 1.186h-2.7631c-.6141 0-1.1665-.4993-1.1665-1.186v-19.9739c0-.6243.4912-1.186 1.1665-1.186h2.7016c.614 0 1.1052.4995 1.1668 1.1235l.0612 1.1235.1585-.1345c.3306-.2812.7002-.5957 1.0696-.864.4914-.3123.9824-.6243 1.5354-.874.552-.2495 1.166-.4368 1.78-.6241.614-.1872 1.29-.2497 1.965-.2497 1.658 0 3.07.312 4.175.9988 1.106.624 1.965 1.5603 2.518 2.6838.43-.4368.921-.8738 1.535-1.3108.552-.4368 1.166-.8113 1.78-1.1858.676-.3745 1.413-.6867 2.15-.874.675-.1873 1.35-.312 2.026-.312 2.64 0 4.605.749 5.833 2.3096 1.228 1.5603 1.903 3.7451 1.903 6.5539v12.7957c0 .6242-.491 1.186-1.166 1.186h-2.825c-.614 0-1.166-.4993-1.166-1.186v-12.6084c0-1.5606-.307-2.8089-.921-3.6204s-1.474-1.2483-2.641-1.2483c-.614 0-1.166.1248-1.78.312-.553.1873-1.105.437-1.535.7491-.492.312-.921.6242-1.29.9362l-.921.9363c.035.1065.05.2537.068.4295l.001.0048v.0078c.013.1299.028.2754.054.4317 0 .2063.019.3935.035.562.014.1375.026.2622.026.3743v12.7959c-.184.6242-.675 1.1235-1.289 1.1235zm17.622-16.0415c-.614 1.4355-.859 2.9961-.859 4.7439 0 1.8726.245 3.4954.859 4.9934.491 1.4355 1.29 2.6841 2.272 3.6826.982.9988 2.21 1.7478 3.623 2.3096 1.412.5618 3.008.8115 4.789.8115 1.965 0 3.623-.1872 5.158-.6243 1.289-.312 2.517-.8115 3.684-1.4355.368-.1873.614-.6243.614-1.2485v-1.1858c0-.8741-.86-1.4358-1.658-1.0613-.092.031-.168.0622-.245.0933-.077.0314-.154.0627-.246.0939-.734.3111-1.468.5599-2.202.8086l-.009.003c-.737.1872-1.473.3745-2.149.4992-.675.125-1.351.1873-1.965.1873-1.105 0-2.087-.1873-2.947-.4993s-1.596-.749-2.272-1.3108c-.614-.5617-1.166-1.186-1.535-1.9973-.43-.749-.675-1.623-.736-2.5593h15.595c.614 0 1.167-.4993 1.167-1.1858v-1.0613c0-1.6853-.246-3.2456-.675-4.5564-.43-1.3108-1.106-2.4343-1.965-3.3706-.86-.9363-1.904-1.623-3.193-2.1223-1.228-.4993-2.702-.749-4.421-.749-1.781 0-3.316.2497-4.728.8115-1.412.4993-2.64 1.3108-3.623 2.3093-.982.9988-1.78 2.1849-2.333 3.6204zm6.386-1.3733c1.044-.8738 2.456-1.3108 4.175-1.3108 1.658 0 2.886.437 3.807 1.3108.86.874 1.412 2.1848 1.474 3.8701h-11.605c.368-1.6853 1.044-2.9961 2.149-3.8701z" fill="#fff" fill-rule="evenodd"/><path d="m7.54998 10.0497h-6.569897c-.368406 0-.675411-.31206-.675411-.68657v-5.43043c0-.37451.307005-.68661.675411-.68661h6.569897c.36841 0 .67541.3121.67541.68661v5.43043c0 .37451-.307.68657-.67541.68657z" fill="#d05"/></svg>